# xmcd CD database file
#
# Track frame offsets:
#	150
#	12162
#	30980
#	42492
#	67742
#	80520
#	106482
#	119352
#	136240
#	165355
#	180945
#
# Disc length: 2585 seconds
#
# Revision: 0
# Processed by: cddbd v1.5.2PL0 Copyright (c) Steve Scherf et al.
# Submitted via: Feurio! 1.68 - http://www.feurio.com
#
DISCID=7b0a170b
DTITLE=Maxwell Blues Band - Maxwell Blues Band
DYEAR=1900
DGENRE=blues
TTITLE0=Get thee Behind Me
TTITLE1=Halleluja
TTITLE2=Rambling on My Mind
TTITLE3=Stormy Monday Blues
TTITLE4=Have a Good Time 1
TTITLE5=Born to Die
TTITLE6=Walking by Myself
TTITLE7=Teeny Weeny
TTITLE8=Hootchie Cootchie Man
TTITLE9=Got My Mojo Working but It Just Won't Work on You
TTITLE10=Have a Good Time 2
EXTD=
EXTT0=
EXTT1=
EXTT2=
EXTT3=
EXTT4=
EXTT5=
EXTT6=
EXTT7=
EXTT8=
EXTT9=
EXTT10=
PLAYORDER=
